<?xml version="1.0" encoding="utf-8"?>
<!-- Generator: Adobe Illustrator 24.0.0, SVG Export Plug-In . SVG Version: 6.00 Build 0)  -->
<svg version="1.1" id="Capa_1" xmlns="http://www.w3.org/2000/svg" xmlns:xlink="http://www.w3.org/1999/xlink" x="0px" y="0px"
	 viewBox="0 0 135 71.9" style="enable-background:new 0 0 135 71.9;" xml:space="preserve">
<g>
	<g>
		<path d="M135.1,41.2c0-8.3-6.7-15.9-17.6-19.9c-4.3-1.6-9.1-2.5-14.1-2.7c-0.9-0.6-1.9-1.1-2.9-1.6c-5.9-2.7-12.9-3.4-19.5-2.3
			l-2.5-3.9l3.4-5.4L71.6,9.6c-0.5-0.7-1.3-1.3-2.4-1.6l6.4-6.9l-8.2,2.3l-8.2-2.3L65.8,8c-1.1,0.3-1.9,0.9-2.4,1.6L53.1,5.3
			l3.4,5.4l-2.5,3.9c-6.5-1.1-13.5-0.4-19.5,2.3c-1,0.5-1.9,1-2.8,1.5c-5.3,0.1-10.5,1-15.1,2.8C6.4,25.3,0,32.9,0,41.2
			c0,2.4,0.5,4.7,1.5,6.8c1.2,3.7,4.4,7.6,8.7,11.5v12.5h114.6V59.1c4.2-3.6,7.3-7.3,8.5-10.8C134.5,45.9,135.1,43.6,135.1,41.2z
			 M97,20.3c7.1,3.3,11.5,9.6,11.5,16.4c0,2-0.4,4-1.2,6c-1.3,4.9-6.2,10.3-12.2,15.4H93c6.2-5.2,11.5-10.8,12.8-15.8
			c0.7-1.8,1.1-3.7,1.1-5.6c0-6.5-4.2-12.5-10.8-15.6c-2.9-1.3-6.1-2-9.4-2c-5.5,0-10.8,2.1-14.6,5.6c-0.5-0.2-0.9-0.4-1.4-0.5
			C77.4,18.1,88.4,16.4,97,20.3z M89,58.2h-8.5c1.7-3.5,2.8-7.8,2.8-12.6c0-8.9-3.5-16.2-8.8-19.6c5.1-4.7,13.2-6.1,19.8-3.1
			c5.9,2.7,9.5,8,9.5,13.9c0,1.8-0.3,3.5-1,5.2C101.5,47.1,95.6,52.9,89,58.2z M71.6,11.9l7.5,3.1c-2.2,0.5-4.3,1.3-6.3,2.2
			l-3.5-3.7C70.3,13.1,71.2,12.6,71.6,11.9z M67.6,27.9c3.9,0,9.6,6.9,9.6,17.7c0,5.2-1.3,9.5-3.1,12.6l0.2,0H57.8L61,58
			c-1.8-3.1-3-7.3-3-12.4C58,34.8,63.7,27.9,67.6,27.9z M54.5,58.2h-8.5c-6.6-5.2-12.3-11-13.7-16c-0.8-1.9-1.1-3.7-1.1-5.4
			c0-5.9,3.7-11.2,9.5-13.9c6.5-3,14.6-1.6,19.7,3.1c-5.3,3.5-8.8,10.7-8.8,19.6C51.8,50.4,52.8,54.7,54.5,58.2z M63.5,11.9
			c0.4,0.7,1.3,1.3,2.4,1.6l-3.5,3.7c-2-0.9-4.1-1.7-6.3-2.2L63.5,11.9z M38.2,20.3c3.1-1.4,6.7-2.2,10.2-2.2
			c6.1,0,11.8,2.2,15.9,6.1c-0.5,0.1-0.9,0.4-1.3,0.5c-3.9-3.5-9.1-5.6-14.6-5.6c-3.3,0-6.4,0.7-9.3,2c-6.7,3.1-10.9,9.1-10.9,15.6
			c0,1.9,0.4,3.8,1.2,5.9c1.3,4.9,6.6,10.5,12.7,15.6h-2c-6-5.1-11-10.6-12.3-15.6c-0.8-1.9-1.1-3.9-1.1-5.9
			C26.6,29.9,31.1,23.6,38.2,20.3z M6.3,41.2c0-6.8,5.2-13.1,13.6-16.4c2-0.8,4-1.3,6.2-1.7c-3.6,3.9-5.6,8.7-5.6,13.7
			c0,2.3,0.5,4.7,1.3,6.7c1.3,4.8,5.4,9.9,10.7,14.7H16.6c-4.5-3.8-7.9-7.6-9.1-11.2C6.7,45.1,6.3,43.2,6.3,41.2z M43.5,67.7H26.8
			v-4.1h16.6C43.5,63.5,43.5,67.7,43.5,67.7z M75.9,67.7H59.3v-4.1h16.6V67.7z M108.3,67.7H91.7v-4.1h16.6V67.7z M127.4,47.1
			c-1.2,3.5-4.7,7.3-9.4,11.1h-15.2c5.2-4.8,9.3-9.8,10.6-14.5c0.9-2.2,1.3-4.6,1.3-6.9c0-4.9-2-9.5-5.4-13.4
			c1.8,0.4,3.5,0.8,5.1,1.4c8.9,3.3,14.4,9.5,14.4,16.3C128.9,43.1,128.4,45.1,127.4,47.1z"/>
	</g>
</g>
</svg>
